
<svg width="150" height="56" viewBox="0 0 150 56" fill="none" xmlns="http://www.w3.org/2000/svg">
<g clip-path="url(#clip0_5_136)">
<path d="M0 2.78159L22.4345 15.7896L45.6878 0L0 2.78159Z" fill="url(#paint0_linear_5_136)"/>
<path d="M0.0409546 3.47699L12.3226 10.6052V32.4415L0.0409546 3.47699Z" fill="white"/>
<path d="M22.3117 16.4032V56L12.8958 33.7939V10.9382L22.3117 16.4032Z" fill="white"/>
<path fill-rule="evenodd" clip-rule="evenodd" d="M35.7642 27.9705H34.1954V24.0272C36.8245 24.0272 42.5068 23.9004 44.8813 24.154C46.7473 24.361 46.4075 24.901 46.4075 27.0641C46.4075 27.4617 46.026 27.6842 45.7287 27.7791C45.0925 27.9861 42.2514 27.9067 41.4457 27.9067C40.9373 27.9067 40.5549 27.9705 40.1316 27.9705H35.7642ZM31.3117 35.7934H34.1954V30.753C36.3578 30.753 35.5522 30.6253 37.2912 31.5637L39.7083 32.8833C41.1501 33.6303 43.143 34.8386 44.5423 35.5389C45.0508 35.777 44.8395 35.8089 45.5601 35.7934C47.2566 35.7778 48.9097 35.7934 50.6062 35.7934L47.765 34.2349C47.553 34.1391 47.3835 34.0598 47.1714 33.9485C46.9168 33.8217 46.8324 33.7415 46.5778 33.6147L43.6941 32.0726C43.3125 31.85 42.931 31.675 42.5494 31.468C42.2104 31.261 41.9132 31.1661 41.5317 30.9272C41.4465 30.8479 41.4891 30.8953 41.4048 30.816C43.1013 30.816 45.1785 30.991 46.5778 30.609C47.9345 30.2433 49.2921 29.4481 49.2921 27.8421V24.4715C49.2921 21.7365 46.5361 21.1008 43.7792 21.1008H31.3125V35.7917L31.3117 35.7934ZM132.529 23.8849C132.529 25.3158 132.274 26.7466 133.249 27.478C134.861 28.6709 136.854 28.6226 139.016 28.6226C140.585 28.6226 144.317 28.5269 145.716 28.7977C147.413 29.1159 147.115 29.5127 147.115 31.6594C147.115 33.011 144.062 32.8833 143.172 32.8833H132.529V35.7934H144.147C145.971 35.7934 148.939 35.269 149.745 33.5517C149.871 33.2973 149.999 32.9954 149.999 32.6297V28.9408C149.999 26.3973 146.65 25.697 144.02 25.697C141.985 25.697 139.06 25.7608 137.067 25.7125C136.855 25.697 136.218 25.6332 136.049 25.5849C135.582 25.4418 135.498 25.2986 135.498 24.8699C135.498 24.3136 136.134 24.1859 136.642 24.1066C137.915 23.9315 147.498 24.0272 149.364 24.0272V21.1016H137.66C135.455 21.1016 132.53 21.7692 132.53 23.8841L132.529 23.8849ZM93.6444 26.4767C93.6444 24.9664 96.0614 24.028 97.5033 24.028H101.871C103.525 24.028 105.856 24.775 105.856 26.349V28.2888H93.6444V26.4758V26.4767ZM90.7607 25.6978V35.7942H93.6444V31.1988H105.856V35.7942H108.74V25.5072C108.74 22.9318 105.179 21.1033 102.507 21.1033H96.782C95.2558 21.1033 93.6444 21.6915 92.711 22.3272C91.6933 23.0267 90.7607 23.997 90.7607 25.6978ZM62.5194 32.8841H58.0243C56.8371 32.8841 54.2506 32.8522 54.2506 31.7871V25.2528C54.2506 23.9168 57.1343 24.0289 57.9817 24.0289H62.5186C63.791 24.0289 66.3775 24.0608 66.3775 25.1898V31.6611C66.3775 32.9651 63.5789 32.885 62.5186 32.885L62.5194 32.8841ZM51.2825 24.2187V32.6935C51.2825 33.2343 51.6215 33.9019 52.003 34.2201C53.1903 35.2534 55.5647 35.7942 57.2186 35.7942H63.4946C65.1911 35.7942 67.4804 35.3172 68.5833 34.2046C69.0074 33.7914 69.3038 33.2662 69.3038 32.6305V24.3471C69.3038 23.0119 68.413 22.2167 67.4378 21.8036C66.5052 21.3904 65.0208 21.1041 63.7066 21.1041H57.0066C55.098 21.1041 51.2825 21.82 51.2825 24.2203V24.2187ZM82.3224 28.2888H73.9266V24.028H82.1954C83.3827 24.028 86.1387 24.0919 86.1387 25.1251V27.1287C86.1387 28.1145 83.467 28.2896 82.3224 28.2896V28.2888ZM71.0003 35.7934H73.9258V31.198H83.1698C84.5691 31.198 86.1804 30.8642 87.113 30.4028C88.2577 29.862 89.0633 29.2583 89.0633 27.5729C89.0633 26.1576 89.2754 23.8047 88.5966 22.8827C88.2577 22.4532 87.8335 22.0719 87.3243 21.8494C86.3065 21.388 84.8221 21.1025 83.3385 21.1025H70.9987V35.7934H71.0003ZM111.708 24.6637V32.2959C111.708 33.8062 112.557 34.5858 113.617 35.0464C114.635 35.4759 116.076 35.7934 117.476 35.7934H129.773V32.8833H118.579C117.349 32.8833 114.72 32.804 114.72 31.7224V25.5056C114.72 24.154 117.137 24.0272 118.579 24.0272H129.773V21.1016H117.561C116.204 21.1016 114.593 21.4829 113.659 21.9288C112.557 22.4695 111.709 23.0414 111.709 24.6637H111.708Z" fill="white"/>
</g>
<defs>
<linearGradient id="paint0_linear_5_136" x1="0" y1="7.89481" x2="45.6878" y2="7.89481" gradientUnits="userSpaceOnUse">
<stop offset="0.13" stop-color="white"/>
<stop offset="0.31" stop-color="#EDEDED"/>
<stop offset="0.62" stop-color="#D2D2D2"/>
<stop offset="0.86" stop-color="#EFEFEF"/>
<stop offset="1" stop-color="white"/>
</linearGradient>
<clipPath id="clip0_5_136">
<rect width="150" height="56" fill="white"/>
</clipPath>
</defs>
</svg>
