<?xml version="1.0" standalone="no"?>
<!DOCTYPE svg PUBLIC "-//W3C//DTD SVG 20010904//EN"
 "http://www.w3.org/TR/2001/REC-SVG-20010904/DTD/svg10.dtd">
<svg version="1.0" xmlns="http://www.w3.org/2000/svg"
 width="400.000000pt" height="400.000000pt" viewBox="0 0 400.000000 400.000000"
 preserveAspectRatio="xMidYMid meet">
<metadata>
Created by potrace 1.14, written by Peter Selinger 2001-2017
</metadata>
<g transform="translate(0.000000,400.000000) scale(0.100000,-0.100000)"
fill="#000000" stroke="none">
<path d="M3507 3974 c-1 -1 -54 -5 -117 -8 -63 -4 -153 -9 -200 -12 -47 -3
-115 -6 -151 -8 -36 -1 -71 -6 -77 -10 -7 -4 -12 -2 -12 4 0 6 -5 8 -11 4 -11
-6 -37 -9 -214 -18 -44 -3 -134 -8 -200 -12 -66 -4 -153 -8 -192 -8 -40 -1
-73 -3 -73 -6 0 -3 -21 -5 -48 -6 -26 -1 -90 -4 -142 -8 -52 -4 -125 -8 -162
-9 -38 -1 -68 -5 -68 -10 0 -4 -9 -3 -19 3 -11 5 -22 6 -25 2 -3 -5 -27 -8
-53 -7 -26 1 -56 -2 -65 -6 -10 -6 -19 -5 -23 1 -4 6 -11 8 -16 4 -6 -3 -47
-8 -92 -10 -45 -3 -111 -7 -147 -10 -36 -2 -104 -6 -151 -8 -48 -2 -91 -6 -97
-10 -6 -3 -14 -2 -17 4 -4 7 -12 7 -18 2 -7 -4 -31 -8 -54 -8 -24 1 -43 -3
-43 -9 0 -5 -5 -3 -10 5 -5 8 -10 11 -10 5 0 -5 -16 -10 -35 -10 -19 0 -35 3
-35 8 0 5 -6 5 -12 -1 -7 -5 -25 -9 -40 -7 -16 2 -30 -1 -34 -6 -3 -5 -13 -5
-25 1 -10 6 -19 7 -19 3 0 -4 -28 -9 -63 -10 -34 -1 -77 -3 -94 -5 -18 -2 -33
0 -33 5 0 4 -6 5 -13 0 -6 -4 -28 -9 -47 -9 -19 -1 -63 -4 -98 -5 -34 -2 -62
-7 -62 -11 0 -4 7 -8 15 -8 8 0 15 -3 15 -8 0 -4 21 -19 48 -32 26 -14 49 -28
52 -31 3 -3 12 -8 20 -12 8 -4 33 -18 55 -32 22 -14 52 -30 67 -36 16 -6 28
-15 28 -19 0 -4 12 -13 28 -19 26 -10 61 -30 72 -41 3 -3 19 -12 35 -20 17 -8
32 -17 35 -20 3 -3 19 -12 35 -20 17 -8 46 -25 66 -37 20 -12 40 -19 43 -16 3
4 6 1 6 -5 0 -6 20 -21 45 -33 25 -12 45 -26 45 -31 0 -4 9 -8 20 -8 11 0 20
-4 20 -8 0 -5 16 -14 35 -22 19 -8 35 -17 35 -22 0 -4 7 -8 15 -8 9 0 18 -7
21 -15 4 -8 14 -15 24 -15 11 0 22 -5 25 -10 4 -6 21 -17 38 -25 18 -8 39 -19
47 -25 49 -32 152 -90 160 -90 6 0 10 -5 10 -11 0 -5 4 -8 9 -4 5 3 13 0 17
-6 3 -6 21 -17 38 -25 45 -21 100 -55 107 -66 3 -5 8 -8 10 -6 2 1 22 -8 44
-21 22 -14 43 -25 47 -25 4 -1 17 -9 28 -18 11 -10 27 -18 35 -18 8 0 15 -4
15 -10 0 -5 7 -10 15 -10 8 0 15 -4 15 -9 0 -5 10 -11 21 -14 21 -6 56 13 122
63 15 12 27 18 27 14 0 -4 8 3 19 14 10 12 21 19 25 15 3 -3 6 -2 6 4 0 6 20
23 45 37 25 15 45 31 45 37 0 6 4 8 9 5 5 -3 28 10 52 29 24 19 49 35 56 35 6
0 13 4 15 8 2 5 66 51 143 102 77 52 142 98 143 102 2 4 10 8 18 8 8 0 14 5
14 11 0 5 5 7 10 4 6 -3 13 0 16 8 3 9 19 21 35 27 16 7 29 16 29 21 0 5 6 9
14 9 8 0 16 4 18 8 2 4 44 34 93 67 50 32 92 61 95 64 11 13 70 51 79 51 6 0
15 8 20 18 6 9 11 13 11 7 0 -6 3 -6 8 0 4 6 47 38 97 70 49 33 96 66 105 73
8 7 19 12 24 11 5 0 12 3 15 8 3 5 35 29 71 53 36 24 71 49 78 56 6 7 21 16
32 19 11 3 20 11 20 16 0 5 6 9 14 9 7 0 19 6 25 14 9 11 2 13 -39 12 -28 0
-52 -1 -53 -2z"/>
<path d="M380 3720 c0 -5 5 -10 11 -10 5 0 7 -4 4 -10 -3 -5 -2 -10 3 -10 5 0
9 -6 9 -12 0 -13 35 -97 54 -132 8 -14 7 -16 -2 -11 -6 4 -3 -5 8 -21 12 -16
40 -78 64 -139 24 -60 47 -111 52 -113 4 -2 7 -11 7 -21 0 -9 7 -27 16 -39 8
-12 13 -22 9 -22 -3 0 4 -18 15 -40 11 -21 20 -46 20 -55 0 -8 3 -15 8 -15 6
0 21 -35 33 -80 2 -8 8 -18 12 -21 5 -3 10 -12 11 -20 2 -8 8 -25 13 -39 6
-14 9 -28 6 -32 -2 -5 0 -8 5 -8 9 0 28 -39 34 -70 2 -8 5 -17 9 -20 7 -7 43
-83 44 -95 0 -5 9 -28 19 -50 10 -22 25 -58 34 -80 8 -22 21 -49 28 -60 7 -11
13 -22 13 -25 0 -6 13 -42 40 -102 11 -27 17 -48 13 -48 -4 0 -2 -4 4 -8 5 -4
21 -34 34 -67 13 -33 30 -70 38 -82 8 -13 11 -23 8 -23 -4 0 -1 -10 6 -22 7
-13 13 -25 14 -28 0 -3 8 -21 17 -41 9 -20 17 -42 19 -50 2 -8 6 -16 9 -19 3
-3 16 -32 29 -65 13 -33 28 -63 33 -66 5 -3 8 -9 8 -13 -1 -3 0 -8 0 -11 1 -3
2 -8 3 -12 1 -5 10 -25 19 -47 9 -21 17 -42 17 -46 0 -4 6 -12 13 -18 9 -8 12
7 12 69 0 43 -4 79 -8 79 -5 0 -5 5 -1 11 9 16 11 109 1 109 -5 0 -5 5 -1 11
10 16 11 89 1 89 -5 0 -5 5 -2 11 10 15 11 109 2 109 -5 0 -5 5 -2 11 10 15
11 109 2 109 -5 0 -5 5 -2 11 10 15 11 109 2 109 -5 0 -5 5 -2 11 10 15 11
109 2 109 -5 0 -5 5 -2 11 10 15 11 109 2 109 -5 0 -5 5 -2 11 10 15 11 109 2
109 -5 0 -5 5 -2 11 10 15 11 109 2 109 -5 0 -5 5 -2 11 10 15 11 109 2 109
-5 0 -5 5 -2 11 10 15 11 109 2 109 -4 0 -3 9 3 19 7 14 7 22 0 26 -8 5 -7 11
1 21 9 11 8 14 -5 14 -10 0 -14 5 -11 10 4 6 3 10 -2 9 -13 -3 -73 25 -73 33
0 4 -7 8 -15 8 -8 0 -15 5 -15 11 0 5 -4 8 -9 4 -5 -3 -12 -1 -15 4 -3 5 -84
53 -178 107 -95 54 -175 100 -178 103 -3 3 -23 15 -45 27 -56 29 -89 48 -95
55 -3 3 -12 8 -20 12 -8 3 -37 20 -65 36 -91 55 -145 81 -145 71z"/>
<path d="M1293 2378 c2 -453 5 -829 7 -835 2 -7 7 -13 11 -13 4 0 10 -13 14
-30 4 -16 11 -30 17 -30 6 0 9 -3 5 -6 -3 -4 3 -24 14 -45 11 -22 16 -39 12
-39 -5 0 -2 -4 5 -9 7 -4 15 -14 16 -22 2 -8 8 -27 15 -44 18 -45 21 -55 18
-59 -1 -1 5 -11 13 -20 8 -10 15 -23 16 -30 1 -6 13 -33 25 -61 13 -27 24 -52
24 -55 5 -16 19 -49 33 -75 9 -16 15 -31 14 -32 -1 -3 22 -60 54 -131 13 -29
24 -54 24 -56 0 -2 8 -21 17 -42 9 -22 16 -42 15 -46 -1 -5 3 -8 10 -8 6 0 9
-3 6 -6 -6 -5 9 -42 68 -172 13 -29 24 -55 24 -57 0 -7 39 -94 56 -128 9 -15
13 -27 10 -27 -3 0 1 -12 9 -27 8 -15 11 -31 8 -36 -3 -6 -1 -7 5 -3 8 5 12 0
12 -13 0 -12 4 -21 8 -21 4 0 8 -10 9 -22 1 -11 7 -24 13 -28 7 -4 11 -10 10
-14 -4 -14 30 -86 41 -86 6 0 9 12 8 28 -2 15 0 32 3 37 4 6 3 17 -2 25 -5 8
-5 22 1 32 5 10 6 18 2 18 -11 0 -9 62 2 80 5 8 5 15 -1 17 -5 2 -8 19 -7 38
2 19 4 51 6 70 1 19 0 35 -3 35 -9 0 -5 64 5 80 5 8 5 15 -1 17 -5 2 -8 19 -7
38 2 19 4 51 6 70 1 19 0 35 -3 35 -9 0 -5 64 5 80 5 8 5 15 -1 17 -5 2 -8 19
-7 38 2 19 4 51 6 70 1 19 0 35 -3 35 -9 0 -5 64 5 80 5 8 5 15 -1 17 -5 2 -8
20 -7 41 2 20 4 52 6 70 1 17 0 32 -3 32 -9 0 -5 64 5 80 5 8 5 15 -1 17 -5 2
-8 20 -7 41 2 20 4 52 6 70 1 17 0 32 -3 32 -9 0 -5 64 5 80 5 8 5 15 -1 17
-5 2 -8 20 -7 41 2 20 4 52 6 70 1 17 0 32 -3 32 -9 0 -5 64 5 80 5 8 5 15 -1
17 -5 2 -8 19 -7 38 2 19 4 51 6 70 1 19 0 35 -3 35 -9 0 -5 64 5 80 5 8 5 15
-1 17 -10 3 -10 70 -1 80 3 3 2 15 -3 28 -6 15 -4 27 3 35 8 8 8 14 2 16 -6 2
-9 20 -8 39 2 19 4 51 6 70 1 19 0 35 -3 35 -9 0 -5 64 5 80 5 8 5 15 -1 17
-5 2 -8 19 -7 38 2 19 4 51 6 70 1 19 0 35 -3 35 -9 0 -5 64 5 80 5 8 5 15 -1
17 -10 3 -10 70 -1 80 3 3 2 15 -3 28 -6 15 -4 27 3 35 9 10 9 14 -1 17 -6 3
-10 9 -6 14 12 19 -8 47 -46 64 -22 10 -40 22 -40 27 0 5 -4 7 -9 4 -5 -3 -14
1 -21 9 -7 8 -16 12 -21 9 -5 -3 -9 -1 -9 4 0 5 -12 15 -27 23 -50 25 -128 73
-134 82 -3 5 -10 9 -15 9 -15 1 -54 21 -54 28 0 3 -16 12 -35 19 -19 7 -35 17
-35 22 0 6 -4 7 -10 4 -5 -3 -10 -1 -10 4 0 6 -9 11 -20 11 -11 0 -20 4 -20 9
0 5 -13 14 -30 21 -16 7 -30 17 -30 22 0 5 -4 7 -9 3 -5 -3 -16 0 -23 7 -15
14 -55 38 -63 38 -3 0 -4 -370 -2 -822z"/>
<path d="M1945 30 c3 -5 8 -10 11 -10 2 0 4 5 4 10 0 6 -5 10 -11 10 -5 0 -7
-4 -4 -10z"/>
</g>
</svg>
